<svg xmlns="http://www.w3.org/2000/svg" opacity=".75" viewBox="330 1200 3350 2750"><defs><linearGradient id="b" x1="750" x2="3250" y1="0" y2="0" gradientUnits="userSpaceOnUse"><stop offset="0" stop-color="#a3e635"/><stop offset="1" stop-color="#84cc16"/></linearGradient><linearGradient id="d" x1="2000" x2="3250" y1="0" y2="0" gradientUnits="userSpaceOnUse"><stop offset="0" stop-color="#84cc16"/><stop offset="1" stop-color="#65a30d"/></linearGradient><linearGradient id="f" x1="1002" x2="1467" y1="2188" y2="3156" gradientUnits="userSpaceOnUse"><stop offset="0" stop-color="#bef264"/><stop offset="1" stop-color="#a3e635"/></linearGradient><linearGradient id="h" x1="2064" x2="3618" y1="2525" y2="2872" gradientUnits="userSpaceOnUse"><stop offset="0" stop-color="#bef264"/><stop offset="1" stop-color="#a3e635"/></linearGradient><linearGradient id="j" x1="846" x2="1894" y1="2039" y2="1332" gradientUnits="userSpaceOnUse"><stop offset="0" stop-color="#bef264"/><stop offset="1" stop-color="#a3e635"/></linearGradient><linearGradient id="l" x1="2595" x2="2995" y1="1319" y2="2396" gradientUnits="userSpaceOnUse"><stop offset="0" stop-color="#bef264"/><stop offset="1" stop-color="#a3e635"/></linearGradient><linearGradient id="n" x1="750" x2="3250" y1="0" y2="0" gradientUnits="userSpaceOnUse"><stop offset="0" stop-color="#a3e635"/><stop offset="1" stop-color="#84cc16"/></linearGradient><linearGradient id="p" x1="1370" x2="1397" y1="1821" y2="2831" gradientUnits="userSpaceOnUse"><stop offset="0" stop-color="#84cc16"/><stop offset="1" stop-color="#65a30d"/></linearGradient><clipPath id="a"><path d="M3250 2226H750v1157c0 55 36 104 89 120 251 75 958 287 1125 337 24 7 49 7 72 0 167-50 874-262 1125-337 53-16 89-65 89-120Z"/></clipPath><clipPath id="c"><path d="M3250 2226H2000s-12 1620 0 1620q18 0 36-6c167-50 874-262 1125-337 53-16 89-65 89-120Z"/></clipPath><clipPath id="e"><path d="M2000 2632 750 2226s-219 325-317 470c-11 17-14 37-7 56 6 18 21 33 39 39 238 77 941 305 1125 365 26 9 55-1 71-24 84-124 339-500 339-500"/></clipPath><clipPath id="g"><path d="m3250 2226-1250 406s255 376 339 500c16 23 45 33 71 24 184-60 887-288 1125-365 18-6 33-21 40-39 6-19 3-39-8-56-98-145-317-470-317-470"/></clipPath><clipPath id="i"><path d="M1697 1374c-15-23-44-33-71-24-184 60-887 288-1124 365-19 6-34 21-40 39-6 19-4 39 7 56 90 134 281 416 281 416l1250-407s-224-330-303-445"/></clipPath><clipPath id="k"><path d="M3531 1810c11-17 14-37 7-56-6-18-21-33-40-39-237-77-940-305-1124-365-27-9-56 1-71 24-78 115-303 445-303 445l1250 407s191-282 281-416"/></clipPath><clipPath id="m"><path d="m3250 2226-1250-407-1250 407 1250 406Z"/></clipPath><clipPath id="o"><path d="M2000 2632v-813L750 2226Z"/></clipPath></defs><g clip-path="url(#a)"><path fill="url(#b)" d="M750 2226h2500v1622H750z"/></g><g clip-path="url(#c)"><path fill="url(#d)" d="M1988 2226h1262v1620H1988z"/></g><g clip-path="url(#e)"><path fill="url(#f)" d="M420 2200h1600v970H420z"/></g><g clip-path="url(#g)"><path fill="url(#h)" d="M2000 2200h1600v970H2000z"/></g><g clip-path="url(#i)"><path fill="url(#j)" d="M458 1346h1542v881H458z"/></g><g clip-path="url(#k)"><path fill="url(#l)" d="M2000 1346h1542v881H2000z"/></g><g clip-path="url(#m)"><path fill="url(#n)" d="M750 1819h2500v813H750z"/></g><g clip-path="url(#o)"><path fill="url(#p)" d="M750 1819h1250v813H750z"/></g></svg>
